<svg width="666" height="666" viewBox="0 0 666 666" fill="none" xmlns="http://www.w3.org/2000/svg">
<rect width="666" height="666" rx="134" fill="url(#paint0_linear_66_39)"/>
<g filter="url(#filter0_d_66_39)">
<path d="M263.685 145.536C263.685 145.536 187.991 145.541 166.312 145.536C158.963 145.536 145 154.36 145 168.318V249.523C145 257.98 156.023 270.468 166.679 270.468H247.518C260.746 270.468 271.034 285.171 271.034 292.147V386.213C271.034 393.2 273.244 397.242 278.016 402.014L385.677 509.675C391.561 515.559 395.966 519.963 405.887 519.963H500.321C509.507 519.963 521.633 509.68 521.633 499.387V419.651C521.633 406.06 510.242 395.4 500.321 395.4H418.38C408.459 395.4 395.598 382.911 395.598 374.455V277.817C395.598 274.882 394.496 270.1 389.719 265.324L276.178 151.782C273.979 149.583 268.095 145.536 263.685 145.536Z" fill="url(#paint1_linear_66_39)"/>
</g>
<rect x="397.803" y="145.536" width="124.197" height="124.197" rx="32" fill="url(#paint2_linear_66_39)"/>
<rect x="398" y="146" width="124.197" height="124.197" rx="32" fill="url(#paint3_linear_66_39)"/>
<defs>
<filter id="filter0_d_66_39" x="141" y="145.536" width="384.633" height="382.427" filterUnits="userSpaceOnUse" color-interpolation-filters="sRGB">
<feFlood flood-opacity="0" result="BackgroundImageFix"/>
<feColorMatrix in="SourceAlpha" type="matrix" values="0 0 0 0 0 0 0 0 0 0 0 0 0 0 0 0 0 0 127 0" result="hardAlpha"/>
<feOffset dy="4"/>
<feGaussianBlur stdDeviation="2"/>
<feComposite in2="hardAlpha" operator="out"/>
<feColorMatrix type="matrix" values="0 0 0 0 0 0 0 0 0 0 0 0 0 0 0 0 0 0 0.25 0"/>
<feBlend mode="normal" in2="BackgroundImageFix" result="effect1_dropShadow_66_39"/>
<feBlend mode="normal" in="SourceGraphic" in2="effect1_dropShadow_66_39" result="shape"/>
</filter>
<linearGradient id="paint0_linear_66_39" x1="103.5" y1="9.99999" x2="616" y2="640.5" gradientUnits="userSpaceOnUse">
<stop stop-color="#3C3C3C"/>
<stop offset="1"/>
</linearGradient>
<linearGradient id="paint1_linear_66_39" x1="171" y1="159" x2="497" y2="536.5" gradientUnits="userSpaceOnUse">
<stop stop-color="white"/>
<stop offset="1" stop-color="#CFCFCF"/>
</linearGradient>
<linearGradient id="paint2_linear_66_39" x1="406.377" y1="150.002" x2="522.693" y2="269.324" gradientUnits="userSpaceOnUse">
<stop stop-color="white"/>
<stop offset="1" stop-color="#CFCFCF"/>
</linearGradient>
<linearGradient id="paint3_linear_66_39" x1="444" y1="156.101" x2="460.098" y2="270.197" gradientUnits="userSpaceOnUse">
<stop stop-color="#F1FF4D"/>
<stop offset="1" stop-color="#D4FF12"/>
</linearGradient>
</defs>
</svg>
